<svg xmlns="http://www.w3.org/2000/svg" width="317.065" height="250.317" viewBox="0 0 317.065 250.317">
  <g id="Group_520" data-name="Group 520" transform="translate(0)" opacity="0.11">
    <path id="Path_4553" data-name="Path 4553" d="M686.561,942.78a5.417,5.417,0,0,1,5.411,5.411v239.494a5.411,5.411,0,1,1-10.823,0V948.191A5.43,5.43,0,0,1,686.561,942.78Z" transform="translate(-374.908 -942.78)" fill="#7d5d41"/>
    <path id="Path_4555" data-name="Path 4555" d="M695.332,961.34a5.417,5.417,0,0,1,5.411,5.411V1078.64a5.411,5.411,0,0,1-10.823,0V966.751A5.4,5.4,0,0,1,695.332,961.34Z" transform="translate(-401.126 -924.415)" fill="#7d5d41"/>
    <path id="Path_4556" data-name="Path 4556" d="M695.332,1025.27a5.417,5.417,0,0,1,5.411,5.411v34.339a5.411,5.411,0,1,1-10.823,0v-34.339A5.392,5.392,0,0,1,695.332,1025.27Z" transform="translate(-401.126 -861.157)" fill="#7d5d41"/>
    <path id="Path_4560" data-name="Path 4560" d="M704.111,994.86a5.417,5.417,0,0,1,5.411,5.411v101.245a5.411,5.411,0,0,1-10.823,0V1000.271A5.391,5.391,0,0,1,704.111,994.86Z" transform="translate(-427.373 -891.248)" fill="#7d5d41"/>
    <path id="Path_4567" data-name="Path 4567" d="M721.671,984.57a5.417,5.417,0,0,1,5.411,5.411v47.051a5.411,5.411,0,0,1-10.823,0V989.981A5.417,5.417,0,0,1,721.671,984.57Z" transform="translate(-479.868 -901.429)" fill="#7d5d41"/>
    <path id="Path_4568" data-name="Path 4568" d="M712.891,980.09A5.417,5.417,0,0,1,718.3,985.5v43.112a5.411,5.411,0,1,1-10.823,0V985.481A5.4,5.4,0,0,1,712.891,980.09Z" transform="translate(-453.622 -905.862)" fill="#7d5d41"/>
    <path id="Path_4569" data-name="Path 4569" d="M712.891,1008.78a5.417,5.417,0,0,1,5.411,5.411v16.155a5.411,5.411,0,1,1-10.823,0v-16.155A5.417,5.417,0,0,1,712.891,1008.78Z" transform="translate(-453.622 -877.474)" fill="#7d5d41"/>
    <path id="Path_4570" data-name="Path 4570" d="M727.705,1003.1H944.082v-5.411a5.411,5.411,0,0,1,10.823,0v16.354a5.411,5.411,0,0,1-10.823,0v-5.391H727.705a2.775,2.775,0,1,1,0-5.551Z" transform="translate(-724.92 -893.8)" fill="#7d5d41"/>
  </g>
</svg>
