<svg xmlns="http://www.w3.org/2000/svg" width="336.562" height="169.591" viewBox="0 0 336.562 169.591">
  <g id="Group_519" data-name="Group 519" transform="translate(15344 3275.81)" opacity="0.28">
    <path id="Path_4528" data-name="Path 4528" d="M510.99,985.61a5.446,5.446,0,0,0-5.44,5.44v98.827a5.44,5.44,0,0,0,10.881,0V991.051A5.446,5.446,0,0,0,510.99,985.61Z" transform="translate(-15558.991 -4208.957)" fill="#fff"/>
    <path id="Path_4529" data-name="Path 4529" d="M519.77,989.47h0a5.446,5.446,0,0,0-5.44,5.44v49.343a5.446,5.446,0,0,0,5.44,5.441h0a5.446,5.446,0,0,0,5.44-5.441V994.91A5.446,5.446,0,0,0,519.77,989.47Z" transform="translate(-15550.21 -4205.096)" fill="#fff"/>
    <path id="Path_4530" data-name="Path 4530" d="M484.65,985.34a5.446,5.446,0,0,0-5.44,5.44v48.763a4.7,4.7,0,0,0,4.7,4.7h1.46a4.7,4.7,0,0,0,4.7-4.7V990.78A5.391,5.391,0,0,0,484.65,985.34Z" transform="translate(-15585.334 -4209.227)" fill="#fff"/>
    <path id="Path_4537" data-name="Path 4537" d="M493.43,984.84a5.446,5.446,0,0,0-5.44,5.44v71.885a4.7,4.7,0,0,0,4.7,4.7h1.46a4.7,4.7,0,0,0,4.7-4.7V990.28A5.416,5.416,0,0,0,493.43,984.84Z" transform="translate(-15576.554 -4209.727)" fill="#fff"/>
    <path id="Path_4538" data-name="Path 4538" d="M493.43,971.61a5.446,5.446,0,0,0-5.44,5.44v12.381a4.7,4.7,0,0,0,4.7,4.7h1.46a4.7,4.7,0,0,0,4.7-4.7V977.05A5.416,5.416,0,0,0,493.43,971.61Z" transform="translate(-15576.554 -4222.959)" fill="#fff"/>
    <path id="Path_4549" data-name="Path 4549" d="M528.55,979.92a5.446,5.446,0,0,0-5.44,5.44v87.566a5.44,5.44,0,1,0,10.88,0V985.36A5.433,5.433,0,0,0,528.55,979.92Z" transform="translate(-15541.429 -4214.647)" fill="#fff"/>
    <path id="Path_4550" data-name="Path 4550" d="M586.035,993.24h0a5.446,5.446,0,0,0-5.44,5.44v3.52H363.08a2.8,2.8,0,0,0,0,5.6H580.615v7.32a5.446,5.446,0,0,0,5.44,5.44h0a5.446,5.446,0,0,0,5.44-5.44V998.681A5.45,5.45,0,0,0,586.035,993.24Z" transform="translate(-15704.28 -4201.326)" fill="#fff"/>
    <path id="Path_4551" data-name="Path 4551" d="M502.21,959.38h0a5.446,5.446,0,0,0-5.44,5.44v94.906a4.7,4.7,0,0,0,4.7,4.7h1.46a4.7,4.7,0,0,0,4.7-4.7V964.82A5.416,5.416,0,0,0,502.21,959.38Z" transform="translate(-15567.772 -4235.19)" fill="#fff"/>
    <path id="Path_4552" data-name="Path 4552" d="M502.21,1014.79a5.446,5.446,0,0,0-5.44,5.44v48.623a4.7,4.7,0,0,0,4.7,4.7h1.46a4.7,4.7,0,0,0,4.7-4.7V1020.23A5.416,5.416,0,0,0,502.21,1014.79Z" transform="translate(-15567.772 -4179.773)" fill="#fff"/>
  </g>
</svg>
