<svg xmlns="http://www.w3.org/2000/svg" width="1179.789" height="281.716" viewBox="0 0 1179.789 281.716">
  <g id="Group_521" data-name="Group 521" opacity="0.5">
    <g id="Group_194" data-name="Group 194" transform="translate(0 133.169)">
      <rect id="Rectangle_58" data-name="Rectangle 58" width="1179.789" height="3.433" fill="#ededed"/>
    </g>
    <g id="Group_195" data-name="Group 195" transform="translate(5.364 0.143)">
      <path id="Path_164" data-name="Path 164" d="M374.583,584.512h0a9.168,9.168,0,0,1-9.369-8.583l-21.6-263.979a5.223,5.223,0,0,0-5.364-5.007h0a5.136,5.136,0,0,0-5.364,4.935L320.085,456.2a9.2,9.2,0,0,1-9.3,8.582h0a9.148,9.148,0,0,1-9.369-8.511l-6.008-63.653a5.141,5.141,0,0,0-5.006-4.863,5.078,5.078,0,0,0-5.65,4.22l-11.3,50.064a8.8,8.8,0,0,1-9.369,7.295,9.184,9.184,0,0,1-9.012-7.8,5.062,5.062,0,0,0-5.436-4.506,5.22,5.22,0,0,0-5.292,4.649L227.61,554.4a9.4,9.4,0,0,1-18.667-.715l-14.733-200.9a5.171,5.171,0,0,0-5.364-5.006,5.226,5.226,0,0,0-5.436,4.863L172.683,460.568a9.159,9.159,0,0,1-9.226,8.439h-.071a9.138,9.138,0,0,1-9.3-8.3l-7.8-65.012a5.246,5.246,0,0,0-5.221-4.792,5.428,5.428,0,0,0-5.507,4.434l-10.37,58.36a9.133,9.133,0,0,1-9.083,7.724c-4.005-.072-8.225-2.217-9.3-7.509l-7.8-37.619a5.465,5.465,0,0,0-10.585-.358L82.21,437.967a9.193,9.193,0,0,1-9.011,6.866h-.072a9.2,9.2,0,0,1-9.011-6.938L62.971,433.6a5.242,5.242,0,0,0-5.006-4,5.076,5.076,0,0,0-5.292,3.576L51.1,437.466l-3.719-1.359,1.573-4.291a9.37,9.37,0,0,1,17.88.715l1.144,4.291a5.249,5.249,0,0,0,5.221,4.005h.072a5.233,5.233,0,0,0,5.221-3.933l6.222-22.028A9.531,9.531,0,0,1,94.082,408a9.242,9.242,0,0,1,8.868,7.438l7.8,37.62a5.153,5.153,0,0,0,5.292,4.291h.071a5.172,5.172,0,0,0,5.221-4.434l10.37-58.36a9.181,9.181,0,0,1,9.226-7.724h.286a9.212,9.212,0,0,1,9.083,8.3l7.8,65.011a5.109,5.109,0,0,0,5.435,4.792,5.177,5.177,0,0,0,5.364-4.863L179.62,352.144a9.121,9.121,0,0,1,9.3-8.439h.143a9.129,9.129,0,0,1,9.226,8.725l14.733,200.9a5.156,5.156,0,0,0,5.221,5.007,5.1,5.1,0,0,0,5.579-4.578l16.736-112.715a9.188,9.188,0,0,1,9.155-8.01h.143a9.093,9.093,0,0,1,9.226,7.8,5.308,5.308,0,0,0,5.221,4.506c2.074-.143,4.72-1,5.435-4.22l11.3-50.064a9.4,9.4,0,0,1,18.524,1.216l6.008,63.653a5.148,5.148,0,0,0,5.364,4.935h0a5.108,5.108,0,0,0,5.364-4.935l12.8-144.327a9.168,9.168,0,0,1,9.369-8.582h0a9.106,9.106,0,0,1,9.3,8.582l21.6,263.98a5.293,5.293,0,0,0,5.364,5.006h0a5.136,5.136,0,0,0,5.364-4.935L397.541,372.6a9.142,9.142,0,0,1,9.226-8.583h.072a9.229,9.229,0,0,1,9.369,8.439l8.725,84.25a5.25,5.25,0,0,0,5.078,4.863,5.191,5.191,0,0,0,5.579-4.291l11.8-56.787a9.176,9.176,0,0,1,8.94-7.438,9.3,9.3,0,0,1,9.3,7.009l8.94,36.4-3.862,1-8.94-36.4a5.165,5.165,0,0,0-5.364-4.077,5.274,5.274,0,0,0-5.149,4.291l-11.8,56.787a9.39,9.39,0,0,1-18.524-.93l-8.725-84.25c-.358-3.576-3-4.792-5.436-4.863a5.2,5.2,0,0,0-5.364,4.935L383.952,576A9.158,9.158,0,0,1,374.583,584.512Z" transform="translate(-47.38 -303.01)" fill="#ededed"/>
    </g>
    <g id="Group_196" data-name="Group 196" transform="translate(423.673)">
      <path id="Path_165" data-name="Path 165" d="M473.561,400.042a9.22,9.22,0,0,0-9.3-7.009,9.118,9.118,0,0,0-8.94,7.438l-11.8,56.787a5.4,5.4,0,0,1-10.656-.572l-8.725-84.25A9.139,9.139,0,0,0,414.772,364H414.7a9.142,9.142,0,0,0-9.226,8.582L388.024,575.623a5.178,5.178,0,0,1-5.364,4.935h0a5.2,5.2,0,0,1-5.364-5.007L355.7,311.572a9.106,9.106,0,0,0-9.3-8.582h0a9.158,9.158,0,0,0-9.369,8.582L324.228,455.9a5.108,5.108,0,0,1-5.364,4.935h0A5.108,5.108,0,0,1,313.5,455.9l-6.008-63.653a9.4,9.4,0,0,0-18.524-1.216l-11.3,50.064c-.715,3.219-3.361,4.077-5.436,4.22a5.308,5.308,0,0,1-5.221-4.506,9.157,9.157,0,0,0-9.226-7.8h-.143a9.138,9.138,0,0,0-9.154,8.01L231.753,553.738a5.072,5.072,0,0,1-5.579,4.649,5.2,5.2,0,0,1-5.221-5.006l-14.733-200.9a9.182,9.182,0,0,0-9.226-8.726h-.143a9.12,9.12,0,0,0-9.3,8.439L176.826,460.119a5.434,5.434,0,0,1-10.8.071l-7.8-65.011a9.27,9.27,0,0,0-9.083-8.3h-.286a9.235,9.235,0,0,0-9.226,7.724l-10.37,58.36a5.221,5.221,0,0,1-5.221,4.434h-.072a5.221,5.221,0,0,1-5.292-4.291l-12.158-50.278c-.358-1.716-.93,11.586-.5,13.517l8.8,37.619c1.073,5.221,5.292,7.438,9.3,7.509a9.134,9.134,0,0,0,9.083-7.724l10.37-58.36a5.313,5.313,0,0,1,5.507-4.434,5.246,5.246,0,0,1,5.221,4.792l7.8,65.012a9.185,9.185,0,0,0,9.3,8.3h.072a9.169,9.169,0,0,0,9.226-8.439L191.416,352.7a5.226,5.226,0,0,1,5.435-4.863,5.171,5.171,0,0,1,5.364,5.006l14.733,200.9a9.4,9.4,0,0,0,18.667.715l16.736-112.715a5.282,5.282,0,0,1,5.292-4.649,5.143,5.143,0,0,1,5.436,4.506,9.322,9.322,0,0,0,9.012,7.8,8.925,8.925,0,0,0,9.369-7.295l11.3-50.064a5.078,5.078,0,0,1,5.65-4.22,5.149,5.149,0,0,1,5.006,4.863l6.008,63.653a9.148,9.148,0,0,0,9.369,8.511h0a9.106,9.106,0,0,0,9.3-8.582l12.8-144.327A5.178,5.178,0,0,1,346.256,307h0A5.122,5.122,0,0,1,351.62,312l21.6,263.979a9.053,9.053,0,0,0,9.3,8.583h0a9.168,9.168,0,0,0,9.369-8.583l17.451-203.045A5.108,5.108,0,0,1,414.7,368c2.432.071,5.078,1.216,5.435,4.863l8.725,84.25a9.062,9.062,0,0,0,8.868,8.368,9.187,9.187,0,0,0,9.655-7.438l11.8-56.787a5.254,5.254,0,0,1,5.149-4.291,5.165,5.165,0,0,1,5.364,4.077l9.441,38.621,3.647-1.716Z" transform="translate(-105.869 -302.99)" fill="#ededed"/>
    </g>
    <g id="Group_197" data-name="Group 197" transform="translate(790.579 0.143)">
      <path id="Path_166" data-name="Path 166" d="M157.17,412.507l9.87,41.481c1.073,5.221,5.293,7.438,9.3,7.509a9.134,9.134,0,0,0,9.083-7.724l10.37-58.36a5.313,5.313,0,0,1,5.507-4.434,5.245,5.245,0,0,1,5.221,4.792l7.8,65.011a9.185,9.185,0,0,0,9.3,8.3h.071a9.169,9.169,0,0,0,9.226-8.439l10.728-107.923a5.226,5.226,0,0,1,5.436-4.863,5.171,5.171,0,0,1,5.364,5.006l14.733,200.9a9.4,9.4,0,0,0,18.667.715l16.736-112.715a5.282,5.282,0,0,1,5.292-4.649,5.143,5.143,0,0,1,5.435,4.506,9.322,9.322,0,0,0,9.011,7.8,8.925,8.925,0,0,0,9.369-7.295l11.3-50.064a5.078,5.078,0,0,1,5.65-4.22,5.149,5.149,0,0,1,5.007,4.863l6.007,63.653a9.148,9.148,0,0,0,9.369,8.511h0a9.106,9.106,0,0,0,9.3-8.582l12.8-144.327a5.178,5.178,0,0,1,5.364-4.935h0a5.122,5.122,0,0,1,5.364,5.007L425.44,576a9.053,9.053,0,0,0,9.3,8.583h0A9.168,9.168,0,0,0,444.107,576l17.451-203.044a5.108,5.108,0,0,1,5.364-4.935c2.432.071,5.078,1.216,5.436,4.863l8.725,84.25a9.062,9.062,0,0,0,8.869,8.368,9.187,9.187,0,0,0,9.655-7.438l11.8-56.787a5.254,5.254,0,0,1,5.149-4.291,5.165,5.165,0,0,1,5.364,4.077l9.369,36.4,3.862-1-9.369-36.4a9.22,9.22,0,0,0-9.3-7.009,9.118,9.118,0,0,0-8.94,7.438l-11.8,56.787a5.4,5.4,0,0,1-10.656-.572l-8.725-84.25a9.139,9.139,0,0,0-9.369-8.439h-.072A9.142,9.142,0,0,0,457.7,372.6L440.245,575.643a5.178,5.178,0,0,1-5.364,4.935h0a5.2,5.2,0,0,1-5.364-5.007l-21.6-263.979a9.106,9.106,0,0,0-9.3-8.582h0a9.158,9.158,0,0,0-9.369,8.582l-12.8,144.327a5.108,5.108,0,0,1-5.364,4.935h0a5.108,5.108,0,0,1-5.364-4.935l-6.008-63.653a9.4,9.4,0,0,0-18.524-1.216l-11.3,50.064c-.715,3.218-3.361,4.077-5.435,4.22a5.308,5.308,0,0,1-5.221-4.506,9.157,9.157,0,0,0-9.226-7.8h-.143a9.138,9.138,0,0,0-9.155,8.01L283.974,553.758a4.965,4.965,0,0,1-5.579,4.577,5.2,5.2,0,0,1-5.221-5.006l-14.733-200.9a9.182,9.182,0,0,0-9.226-8.726h-.143a9.12,9.12,0,0,0-9.3,8.439L229.047,460.067a5.434,5.434,0,0,1-10.8.071l-7.8-65.011a9.27,9.27,0,0,0-9.083-8.3h-.286a9.235,9.235,0,0,0-9.226,7.724l-10.37,58.36a5.221,5.221,0,0,1-5.221,4.434h-.072a5.221,5.221,0,0,1-5.292-4.291l-12.516-51.637Z" transform="translate(-157.17 -303.01)" fill="#ededed"/>
    </g>
  </g>
</svg>
