<svg xmlns="http://www.w3.org/2000/svg" width="563.607" height="444.957" viewBox="0 0 563.607 444.957">
  <g id="Group_520" data-name="Group 520" transform="translate(0 0)" opacity="0.04">
    <path id="Path_4553" data-name="Path 4553" d="M690.769,942.78a9.629,9.629,0,0,1,9.619,9.619v425.719a9.619,9.619,0,1,1-19.238,0V952.4A9.652,9.652,0,0,1,690.769,942.78Z" transform="translate(-136.781 -942.78)" fill="#7d5d41"/>
    <path id="Path_4555" data-name="Path 4555" d="M699.539,961.34a9.629,9.629,0,0,1,9.619,9.619V1169.85a9.619,9.619,0,0,1-19.238,0V970.959A9.607,9.607,0,0,1,699.539,961.34Z" transform="translate(-176.566 -895.703)" fill="#7d5d41"/>
    <path id="Path_4556" data-name="Path 4556" d="M699.539,1025.27a9.629,9.629,0,0,1,9.619,9.619v61.039a9.619,9.619,0,1,1-19.238,0v-61.039A9.584,9.584,0,0,1,699.539,1025.27Z" transform="translate(-176.566 -733.547)" fill="#7d5d41"/>
    <path id="Path_4560" data-name="Path 4560" d="M708.319,994.86a9.629,9.629,0,0,1,9.619,9.618v179.971a9.619,9.619,0,0,1-19.238,0V1004.479A9.584,9.584,0,0,1,708.319,994.86Z" transform="translate(-216.396 -810.681)" fill="#7d5d41"/>
    <path id="Path_4567" data-name="Path 4567" d="M725.879,984.57a9.629,9.629,0,0,1,9.619,9.619v83.637a9.619,9.619,0,0,1-19.238,0V994.189A9.629,9.629,0,0,1,725.879,984.57Z" transform="translate(-296.056 -836.781)" fill="#7d5d41"/>
    <path id="Path_4568" data-name="Path 4568" d="M717.1,980.09a9.629,9.629,0,0,1,9.619,9.619v76.635a9.619,9.619,0,1,1-19.238,0v-76.67A9.6,9.6,0,0,1,717.1,980.09Z" transform="translate(-256.228 -848.145)" fill="#7d5d41"/>
    <path id="Path_4569" data-name="Path 4569" d="M717.1,1008.78a9.629,9.629,0,0,1,9.619,9.619v28.716a9.619,9.619,0,1,1-19.238,0V1018.4A9.629,9.629,0,0,1,717.1,1008.78Z" transform="translate(-256.228 -775.374)" fill="#7d5d41"/>
    <path id="Path_4570" data-name="Path 4570" d="M729.871,1011.518H1114.5V1001.9a9.619,9.619,0,1,1,19.238,0v29.07a9.619,9.619,0,0,1-19.238,0v-9.584H729.871a4.934,4.934,0,1,1,0-9.867Z" transform="translate(-724.92 -817.225)" fill="#7d5d41"/>
  </g>
</svg>
