<svg xmlns="http://www.w3.org/2000/svg" width="225" height="209" viewBox="0 0 225 209"><g><g opacity=".15"><path fill="#606060" d="M40.399 85.145a3.726 3.726 0 0 0-3.723 3.722v67.626a3.726 3.726 0 0 0 3.723 3.722 3.726 3.726 0 0 0 3.722-3.722V88.867a3.727 3.727 0 0 0-3.722-3.722z"/></g><g opacity=".15"><path fill="#606060" d="M52.416 90.428a3.727 3.727 0 0 0-3.723 3.722v33.765a3.727 3.727 0 0 0 3.723 3.723 3.727 3.727 0 0 0 3.722-3.723V94.15a3.727 3.727 0 0 0-3.722-3.722z"/></g><g opacity=".15"><path fill="#606060" d="M4.348 84.775a3.727 3.727 0 0 0-3.723 3.723v33.368a3.213 3.213 0 0 0 3.217 3.216h.999a3.213 3.213 0 0 0 3.216-3.216V88.498a3.69 3.69 0 0 0-3.709-3.723z"/></g><g opacity=".15"><path fill="#606060" d="M160.567 44.687a3.727 3.727 0 0 0-3.722 3.723v58.017a3.727 3.727 0 0 0 3.722 3.723 3.727 3.727 0 0 0 3.723-3.723V48.41a3.727 3.727 0 0 0-3.723-3.723z"/></g><g opacity=".15"><path fill="#606060" d="M160.567 24.349a3.727 3.727 0 0 0-3.722 3.722v8.664a3.727 3.727 0 0 0 3.722 3.723 3.727 3.727 0 0 0 3.723-3.723V28.07a3.727 3.727 0 0 0-3.723-3.722z"/></g><g opacity=".15"><path fill="#606060" d="M160.567 112.039a3.727 3.727 0 0 0-3.722 3.723v75.865a3.727 3.727 0 0 0 3.722 3.722 3.727 3.727 0 0 0 3.723-3.722v-75.865a3.727 3.727 0 0 0-3.723-3.723z"/></g><g opacity=".15"><path fill="#606060" d="M172.584 63.492a3.727 3.727 0 0 0-3.723 3.723v87.65a3.727 3.727 0 0 0 3.723 3.722 3.727 3.727 0 0 0 3.723-3.723V67.215a3.727 3.727 0 0 0-3.723-3.723z"/></g><g opacity=".15"><path fill="#606060" d="M148.55 83.694a3.727 3.727 0 0 0-3.722 3.722v117.39a3.727 3.727 0 0 0 3.722 3.723 3.727 3.727 0 0 0 3.723-3.722V87.417a3.727 3.727 0 0 0-3.723-3.723z"/></g><g opacity=".15"><path fill="#606060" d="M16.365 84.09a3.727 3.727 0 0 0-3.723 3.724v49.19a3.213 3.213 0 0 0 3.217 3.215h.999a3.213 3.213 0 0 0 3.216-3.216v-49.19a3.706 3.706 0 0 0-3.709-3.722z"/></g><g opacity=".15"><path fill="#606060" d="M16.365 65.983a3.726 3.726 0 0 0-3.723 3.723v8.472a3.213 3.213 0 0 0 3.217 3.216h.999a3.213 3.213 0 0 0 3.216-3.216v-8.472a3.706 3.706 0 0 0-3.709-3.723z"/></g><g opacity=".15"><path fill="#606060" d="M124.517 0a3.727 3.727 0 0 0-3.723 3.723v183.99a3.727 3.727 0 0 0 3.723 3.722 3.727 3.727 0 0 0 3.722-3.723V3.722A3.718 3.718 0 0 0 124.517 0z"/></g><g opacity=".15"><path fill="#606060" d="M88.466 14.96a3.727 3.727 0 0 0-3.723 3.722v184.715a3.727 3.727 0 0 0 3.723 3.723 3.727 3.727 0 0 0 3.723-3.723V18.682a3.718 3.718 0 0 0-3.723-3.722z"/></g><g opacity=".15"><path fill="#606060" d="M100.483 39.404a3.727 3.727 0 0 0-3.723 3.723v89.387a3.727 3.727 0 0 0 3.723 3.723 3.727 3.727 0 0 0 3.723-3.723V43.127a3.727 3.727 0 0 0-3.723-3.723z"/></g><g opacity=".15"><path fill="#606060" d="M100.483 138.125a3.727 3.727 0 0 0-3.723 3.723v39.856a3.727 3.727 0 0 0 3.723 3.722 3.727 3.727 0 0 0 3.723-3.722v-39.856a3.727 3.727 0 0 0-3.723-3.723z"/></g><g opacity=".15"><path fill="#606060" d="M112.5 67.995a3.726 3.726 0 0 0-3.723 3.723v129.571a3.727 3.727 0 0 0 3.723 3.723 3.727 3.727 0 0 0 3.722-3.723V71.718a3.718 3.718 0 0 0-3.722-3.723z"/></g><g opacity=".15"><path fill="#606060" d="M112.5 64.751a3.727 3.727 0 0 0 3.722-3.722V35.01a3.727 3.727 0 0 0-3.722-3.722 3.726 3.726 0 0 0-3.723 3.722v26.032a3.715 3.715 0 0 0 3.723 3.71z"/></g><g opacity=".15"><path fill="#606060" d="M112.5 28.071a3.727 3.727 0 0 0 3.722-3.722v-8.09a3.727 3.727 0 0 0-3.722-3.722 3.727 3.727 0 0 0-3.723 3.723v8.089a3.726 3.726 0 0 0 3.723 3.722z"/></g><g opacity=".15"><path fill="#606060" d="M76.45 54.46a3.727 3.727 0 0 0-3.724 3.722v105.702a3.727 3.727 0 0 0 3.723 3.722 3.727 3.727 0 0 0 3.723-3.722V58.182a3.726 3.726 0 0 0-3.723-3.723z"/></g><g opacity=".15"><path fill="#606060" d="M136.534 43.948a3.727 3.727 0 0 0-3.723 3.723v126.724a3.727 3.727 0 0 0 3.723 3.723 3.727 3.727 0 0 0 3.722-3.723V47.67a3.726 3.726 0 0 0-3.722-3.723z"/></g><g opacity=".15"><path fill="#606060" d="M64.432 77.357a3.726 3.726 0 0 0-3.722 3.723V141a3.727 3.727 0 0 0 3.722 3.722A3.727 3.727 0 0 0 68.155 141V81.08a3.718 3.718 0 0 0-3.723-3.723z"/></g><g opacity=".15"><path fill="#606060" d="M28.382 49.245a3.727 3.727 0 0 0-3.723 3.722v64.943a3.213 3.213 0 0 0 3.216 3.217h1a3.213 3.213 0 0 0 3.216-3.217V52.967a3.706 3.706 0 0 0-3.71-3.722z"/></g><g opacity=".15"><path fill="#606060" d="M28.382 125.082a3.727 3.727 0 0 0-3.723 3.723v33.272a3.213 3.213 0 0 0 3.216 3.216h1a3.213 3.213 0 0 0 3.216-3.216v-33.272a3.706 3.706 0 0 0-3.71-3.723z"/></g><g opacity=".15"><path fill="#606060" d="M220.652 97.805a3.727 3.727 0 0 0-3.723 3.722v82.12a3.727 3.727 0 0 0 3.723 3.723 3.727 3.727 0 0 0 3.722-3.723v-82.12a3.726 3.726 0 0 0-3.722-3.722z"/></g><g opacity=".15"><path fill="#606060" d="M196.618 82.64a3.727 3.727 0 0 0-3.723 3.723v49.34a3.727 3.727 0 0 0 3.723 3.723 3.727 3.727 0 0 0 3.722-3.723v-49.34a3.727 3.727 0 0 0-3.722-3.723z"/></g><g opacity=".15"><path fill="#606060" d="M184.601 66.257a3.727 3.727 0 0 0-3.723 3.723v82.12a3.727 3.727 0 0 0 3.723 3.722 3.727 3.727 0 0 0 3.723-3.722V69.98a3.718 3.718 0 0 0-3.723-3.723z"/></g><g opacity=".15"><path fill="#606060" d="M208.635 108.768a3.727 3.727 0 0 0-3.723 3.722v60.18a3.727 3.727 0 0 0 3.723 3.723 3.727 3.727 0 0 0 3.722-3.723v-60.18a3.718 3.718 0 0 0-3.722-3.722z"/></g></g></svg>