<svg xmlns="http://www.w3.org/2000/svg" width="237" height="223" viewBox="0 0 237 223"><g><g opacity=".15"><path fill="#606060" d="M64.43 44.687a3.727 3.727 0 0 0-3.722 3.723v58.017a3.727 3.727 0 0 0 3.722 3.723 3.727 3.727 0 0 0 3.723-3.723V48.41a3.727 3.727 0 0 0-3.723-3.723z"/></g><g opacity=".15"><path fill="#606060" d="M64.43 112.039a3.727 3.727 0 0 0-3.722 3.723v75.865a3.727 3.727 0 0 0 3.722 3.722 3.727 3.727 0 0 0 3.723-3.722v-75.865a3.727 3.727 0 0 0-3.723-3.723z"/></g><g opacity=".15"><path fill="#606060" d="M76.447 63.492a3.727 3.727 0 0 0-3.722 3.723v87.65a3.727 3.727 0 0 0 3.722 3.722 3.727 3.727 0 0 0 3.723-3.723V67.215a3.727 3.727 0 0 0-3.723-3.723z"/></g><g opacity=".15"><path fill="#606060" d="M52.414 35.708a3.727 3.727 0 0 0-3.723 3.723V77.18a3.727 3.727 0 0 0 3.723 3.723 3.727 3.727 0 0 0 3.722-3.723V39.43a3.727 3.727 0 0 0-3.722-3.723z"/></g><g opacity=".15"><path fill="#606060" d="M52.414 83.694a3.727 3.727 0 0 0-3.723 3.722v117.39a3.727 3.727 0 0 0 3.723 3.723 3.727 3.727 0 0 0 3.722-3.722V87.417a3.727 3.727 0 0 0-3.722-3.723z"/></g><g opacity=".15"><path fill="#606060" d="M28.38 0a3.727 3.727 0 0 0-3.723 3.723v183.99a3.727 3.727 0 0 0 3.723 3.722 3.727 3.727 0 0 0 3.723-3.723V3.722A3.718 3.718 0 0 0 28.38 0z"/></g><g opacity=".15"><path fill="#606060" d="M28.38 194.815a3.727 3.727 0 0 0-3.723 3.723v19.873a3.727 3.727 0 0 0 3.723 3.723 3.727 3.727 0 0 0 3.723-3.723v-19.873a3.726 3.726 0 0 0-3.723-3.723z"/></g><g opacity=".15"><path fill="#606060" d="M4.346 39.404a3.727 3.727 0 0 0-3.723 3.723v89.387a3.727 3.727 0 0 0 3.723 3.723 3.727 3.727 0 0 0 3.723-3.723V43.127a3.727 3.727 0 0 0-3.723-3.723z"/></g><g opacity=".15"><path fill="#606060" d="M4.346 138.125a3.727 3.727 0 0 0-3.723 3.723v39.856a3.727 3.727 0 0 0 3.723 3.722 3.727 3.727 0 0 0 3.723-3.722v-39.856a3.727 3.727 0 0 0-3.723-3.723z"/></g><g opacity=".15"><path fill="#606060" d="M16.363 67.995a3.726 3.726 0 0 0-3.723 3.723v129.571a3.727 3.727 0 0 0 3.723 3.723 3.727 3.727 0 0 0 3.723-3.723V71.718a3.718 3.718 0 0 0-3.723-3.723z"/></g><g opacity=".15"><path fill="#606060" d="M40.397 43.948a3.727 3.727 0 0 0-3.723 3.723v126.724a3.727 3.727 0 0 0 3.723 3.723 3.727 3.727 0 0 0 3.723-3.723V47.67a3.726 3.726 0 0 0-3.723-3.723z"/></g><g opacity=".15"><path fill="#606060" d="M184.6 26.525a3.727 3.727 0 0 0-3.724 3.723v164.76a3.727 3.727 0 0 0 3.723 3.722 3.727 3.727 0 0 0 3.723-3.723V30.247c-.014-2.052-1.67-3.722-3.723-3.722z"/></g><g opacity=".15"><path fill="#606060" d="M124.515 97.805a3.727 3.727 0 0 0-3.723 3.722v82.12a3.727 3.727 0 0 0 3.723 3.723 3.727 3.727 0 0 0 3.723-3.723v-82.12a3.726 3.726 0 0 0-3.723-3.722z"/></g><g opacity=".15"><path fill="#606060" d="M196.602 51.927a3.727 3.727 0 0 0-3.722 3.723v76.974a3.726 3.726 0 0 0 3.722 3.722 3.727 3.727 0 0 0 3.723-3.722V55.65a3.718 3.718 0 0 0-3.723-3.723z"/></g><g opacity=".15"><path fill="#606060" d="M196.602 139.426a3.727 3.727 0 0 0-3.722 3.723v23.623a3.727 3.727 0 0 0 3.722 3.722 3.727 3.727 0 0 0 3.723-3.722v-23.623a3.71 3.71 0 0 0-3.723-3.723z"/></g><g opacity=".15"><path fill="#606060" d="M172.582 73.949a3.727 3.727 0 0 0-3.722 3.723v12.892a3.726 3.726 0 0 0 3.722 3.723 3.727 3.727 0 0 0 3.723-3.723V77.672a3.727 3.727 0 0 0-3.723-3.723z"/></g><g opacity=".15"><path fill="#606060" d="M172.582 99.214a3.727 3.727 0 0 0-3.722 3.723v111.149a3.727 3.727 0 0 0 3.722 3.723 3.727 3.727 0 0 0 3.723-3.723V102.937a3.727 3.727 0 0 0-3.723-3.723z"/></g><g opacity=".15"><path fill="#606060" d="M160.565 96.477a3.727 3.727 0 0 0-3.722 3.723v84.747a3.727 3.727 0 0 0 3.722 3.723 3.727 3.727 0 0 0 3.723-3.723V100.2c-.013-2.053-1.67-3.723-3.723-3.723z"/></g><g opacity=".15"><path fill="#606060" d="M208.62 97.805a3.727 3.727 0 0 0-3.724 3.722v69.652a3.727 3.727 0 0 0 3.723 3.722 3.727 3.727 0 0 0 3.723-3.722v-69.652a3.709 3.709 0 0 0-3.723-3.722z"/></g><g opacity=".15"><path fill="#606060" d="M136.532 90.03a3.727 3.727 0 0 0-3.723 3.723v48.807a3.727 3.727 0 0 0 3.723 3.723 3.726 3.726 0 0 0 3.722-3.723V93.753c-.013-2.053-1.67-3.722-3.722-3.722z"/></g><g opacity=".15"><path fill="#606060" d="M136.532 148.473a3.726 3.726 0 0 0-3.723 3.722v51.517a3.727 3.727 0 0 0 3.723 3.722 3.726 3.726 0 0 0 3.722-3.722v-51.517a3.726 3.726 0 0 0-3.722-3.722z"/></g><g opacity=".15"><path fill="#606060" d="M100.481 82.64a3.727 3.727 0 0 0-3.723 3.723v49.34a3.727 3.727 0 0 0 3.723 3.723 3.727 3.727 0 0 0 3.723-3.723v-49.34a3.727 3.727 0 0 0-3.723-3.723z"/></g><g opacity=".15"><path fill="#606060" d="M88.464 66.257a3.727 3.727 0 0 0-3.722 3.723v82.12a3.727 3.727 0 0 0 3.722 3.722 3.727 3.727 0 0 0 3.723-3.722V69.98a3.718 3.718 0 0 0-3.723-3.723z"/></g><g opacity=".15"><path fill="#606060" d="M112.498 108.768a3.727 3.727 0 0 0-3.723 3.722v60.18a3.727 3.727 0 0 0 3.723 3.723 3.727 3.727 0 0 0 3.723-3.723v-60.18a3.718 3.718 0 0 0-3.723-3.722z"/></g><g opacity=".15"><path fill="#606060" d="M148.549 109.384a3.727 3.727 0 0 0-3.723 3.722v58.962a3.727 3.727 0 0 0 3.723 3.723 3.727 3.727 0 0 0 3.722-3.723v-58.962a3.727 3.727 0 0 0-3.722-3.722z"/></g><g opacity=".15"><path fill="#606060" d="M232.653 83.721a3.727 3.727 0 0 0-3.723 3.723v32.369a3.726 3.726 0 0 0 3.723 3.723 3.726 3.726 0 0 0 3.723-3.723V87.444a3.727 3.727 0 0 0-3.723-3.723z"/></g><g opacity=".15"><path fill="#606060" d="M220.636 77.59a3.727 3.727 0 0 0-3.723 3.722v29.66a3.727 3.727 0 0 0 3.723 3.722 3.727 3.727 0 0 0 3.723-3.723V81.3a3.715 3.715 0 0 0-3.723-3.71z"/></g><g opacity=".15"><path fill="#606060" d="M220.636 116.857a3.727 3.727 0 0 0-3.723 3.722v11.114a3.727 3.727 0 0 0 3.723 3.723 3.727 3.727 0 0 0 3.723-3.723v-11.114a3.727 3.727 0 0 0-3.723-3.722z"/></g></g></svg>