<svg width="184" height="55" viewBox="0 0 184 55" fill="none" xmlns="http://www.w3.org/2000/svg">
<g clip-path="url(#clip0_1_2)">
<path d="M49.8198 15.3296H60.4707C62.5762 15.3296 64.2734 15.9258 65.5625 17.1182C66.8516 18.2998 67.4961 19.9648 67.4961 22.1133C67.4961 23.9609 66.9214 25.5723 65.772 26.9473C64.6226 28.3115 62.8555 28.9937 60.4707 28.9937H53.0264V39H49.8198V15.3296ZM64.2573 22.1294C64.2573 20.3892 63.6128 19.2075 62.3237 18.5845C61.6147 18.2515 60.6426 18.085 59.4072 18.085H53.0264V26.2866H59.4072C60.8467 26.2866 62.0122 25.9805 62.9038 25.3682C63.8062 24.7559 64.2573 23.6763 64.2573 22.1294ZM79.6358 37.1309C81.5587 37.1309 82.8746 36.4058 83.5836 34.9556C84.3033 33.4946 84.6632 31.8726 84.6632 30.0894C84.6632 28.478 84.4054 27.1675 83.8897 26.1577C83.0733 24.5679 81.6661 23.7729 79.6681 23.7729C77.8956 23.7729 76.6065 24.4497 75.8009 25.8032C74.9952 27.1567 74.5924 28.7896 74.5924 30.7017C74.5924 32.5386 74.9952 34.0693 75.8009 35.2939C76.6065 36.5186 77.8849 37.1309 79.6358 37.1309ZM79.7486 21.2432C81.9723 21.2432 83.8521 21.9844 85.3883 23.4668C86.9244 24.9492 87.6925 27.1299 87.6925 30.0088C87.6925 32.791 87.0157 35.0898 85.6622 36.9053C84.3087 38.7207 82.2086 39.6284 79.3619 39.6284C76.9879 39.6284 75.1026 38.8281 73.7062 37.2275C72.3097 35.6162 71.6114 33.457 71.6114 30.75C71.6114 27.8496 72.3473 25.54 73.8189 23.8213C75.2906 22.1025 77.2672 21.2432 79.7486 21.2432ZM94.6437 30.5728C94.6437 32.4204 95.0358 33.9673 95.82 35.2134C96.6042 36.4595 97.861 37.0825 99.5905 37.0825C100.933 37.0825 102.034 36.5078 102.894 35.3584C103.764 34.1982 104.199 32.5386 104.199 30.3794C104.199 28.1987 103.753 26.5874 102.862 25.5454C101.97 24.4927 100.869 23.9663 99.5583 23.9663C98.0974 23.9663 96.9104 24.5249 95.9973 25.6421C95.0949 26.7593 94.6437 28.4028 94.6437 30.5728ZM99.0104 21.4365C100.332 21.4365 101.438 21.7158 102.33 22.2744C102.845 22.5967 103.431 23.1606 104.086 23.9663V15.249H106.874V39H104.263V36.5991C103.587 37.6626 102.786 38.4307 101.862 38.9033C100.939 39.376 99.8806 39.6123 98.6882 39.6123C96.7653 39.6123 95.1003 38.8066 93.6931 37.1953C92.2858 35.5732 91.5822 33.4194 91.5822 30.7339C91.5822 28.2202 92.2214 26.0449 93.4997 24.208C94.7888 22.3604 96.6257 21.4365 99.0104 21.4365ZM123.187 14.6851C126.184 14.6851 128.51 15.4746 130.164 17.0537C131.818 18.6328 132.737 20.4268 132.919 22.4355H129.793C129.439 20.9102 128.73 19.7017 127.666 18.8101C126.614 17.9185 125.131 17.4727 123.219 17.4727C120.888 17.4727 119.003 18.2944 117.563 19.938C116.135 21.5708 115.42 24.0791 115.42 27.4629C115.42 30.2344 116.065 32.4849 117.354 34.2144C118.654 35.9331 120.587 36.7925 123.155 36.7925C125.518 36.7925 127.317 35.8848 128.553 34.0693C129.208 33.1133 129.697 31.8564 130.019 30.2988H133.145C132.866 32.791 131.942 34.8804 130.373 36.5669C128.493 38.5972 125.958 39.6123 122.768 39.6123C120.018 39.6123 117.708 38.7798 115.839 37.1147C113.379 34.9126 112.149 31.5127 112.149 26.915C112.149 23.4238 113.073 20.561 114.921 18.3267C116.919 15.8989 119.674 14.6851 123.187 14.6851ZM140.547 34.4077C140.547 35.2456 140.853 35.9062 141.466 36.3896C142.078 36.873 142.803 37.1147 143.641 37.1147C144.662 37.1147 145.65 36.8784 146.606 36.4058C148.217 35.6216 149.023 34.3379 149.023 32.5547V30.2183C148.668 30.4438 148.212 30.6318 147.653 30.7822C147.095 30.9326 146.547 31.04 146.01 31.1045L144.253 31.3301C143.201 31.4697 142.411 31.6899 141.885 31.9907C140.993 32.4956 140.547 33.3013 140.547 34.4077ZM147.573 28.5425C148.239 28.4565 148.684 28.1772 148.91 27.7046C149.039 27.4468 149.103 27.0762 149.103 26.5928C149.103 25.6045 148.749 24.8901 148.04 24.4497C147.342 23.9985 146.337 23.7729 145.027 23.7729C143.512 23.7729 142.438 24.1812 141.804 24.9976C141.45 25.4487 141.219 26.1201 141.111 27.0117H138.404C138.458 24.8848 139.145 23.4077 140.467 22.5806C141.799 21.7427 143.34 21.3237 145.091 21.3237C147.121 21.3237 148.77 21.7104 150.038 22.4839C151.295 23.2573 151.923 24.4604 151.923 26.0933V36.0352C151.923 36.3359 151.982 36.5776 152.1 36.7603C152.229 36.9429 152.493 37.0342 152.89 37.0342C153.019 37.0342 153.164 37.0288 153.325 37.0181C153.486 36.9966 153.658 36.9697 153.841 36.9375V39.0806C153.39 39.2095 153.046 39.29 152.809 39.3223C152.573 39.3545 152.251 39.3706 151.843 39.3706C150.844 39.3706 150.119 39.0161 149.667 38.3071C149.431 37.9312 149.265 37.3994 149.168 36.7119C148.577 37.4854 147.728 38.1567 146.622 38.7261C145.516 39.2954 144.296 39.5801 142.964 39.5801C141.364 39.5801 140.053 39.0967 139.033 38.1299C138.023 37.1523 137.518 35.9331 137.518 34.4722C137.518 32.8716 138.017 31.6309 139.017 30.75C140.016 29.8691 141.326 29.3267 142.948 29.1226L147.573 28.5425ZM160.067 33.5859C160.153 34.5527 160.395 35.2939 160.792 35.8096C161.522 36.7441 162.79 37.2114 164.595 37.2114C165.669 37.2114 166.614 36.9805 167.431 36.5186C168.247 36.0459 168.655 35.3208 168.655 34.3433C168.655 33.6021 168.328 33.0381 167.672 32.6514C167.253 32.415 166.426 32.1411 165.191 31.8296L162.887 31.2495C161.415 30.8843 160.33 30.4761 159.632 30.0249C158.386 29.2407 157.763 28.1558 157.763 26.77C157.763 25.1372 158.348 23.8159 159.519 22.8062C160.701 21.7964 162.285 21.2915 164.272 21.2915C166.872 21.2915 168.747 22.0542 169.896 23.5796C170.616 24.5464 170.965 25.5884 170.943 26.7056H168.204C168.15 26.0503 167.919 25.4541 167.511 24.917C166.845 24.1543 165.69 23.7729 164.047 23.7729C162.951 23.7729 162.119 23.9824 161.549 24.4014C160.991 24.8203 160.711 25.3735 160.711 26.061C160.711 26.813 161.082 27.4146 161.823 27.8657C162.253 28.1343 162.887 28.3706 163.725 28.5747L165.642 29.042C167.726 29.5469 169.123 30.0356 169.832 30.5083C170.959 31.2495 171.523 32.415 171.523 34.0049C171.523 35.541 170.938 36.8677 169.767 37.9849C168.607 39.1021 166.834 39.6606 164.45 39.6606C161.882 39.6606 160.062 39.0806 158.987 37.9204C157.924 36.7495 157.354 35.3047 157.279 33.5859H160.067ZM177.073 16.9248H180.005V21.7427H182.761V24.1113H180.005V35.3745C180.005 35.9761 180.21 36.3789 180.618 36.583C180.843 36.7012 181.219 36.7603 181.746 36.7603C181.885 36.7603 182.036 36.7603 182.197 36.7603C182.358 36.7495 182.546 36.7334 182.761 36.7119V39C182.428 39.0967 182.079 39.1665 181.713 39.2095C181.359 39.2524 180.972 39.2739 180.553 39.2739C179.2 39.2739 178.281 38.9302 177.798 38.2427C177.315 37.5444 177.073 36.6421 177.073 35.5356V24.1113H174.736V21.7427H177.073V16.9248Z" fill="white"/>
<path d="M24.6685 44.0362C16.6082 44.0362 10.05 37.4779 10.05 29.4177V23.9357H9.13631C8.63197 23.9357 8.22266 23.5264 8.22266 23.0221C8.22266 22.5177 8.63197 22.1084 9.13631 22.1084H10.9636C11.468 22.1084 11.8773 22.5177 11.8773 23.0221V29.4177C11.8773 36.4693 17.6151 42.2089 24.6685 42.2089C31.7219 42.2089 37.4597 36.4693 37.4597 29.4177V23.0221C37.4597 22.5177 37.869 22.1084 38.3733 22.1084H40.2007C40.705 22.1084 41.1143 22.5177 41.1143 23.0221C41.1143 23.5264 40.705 23.9357 40.2007 23.9357H39.287V29.4177C39.287 37.4779 32.7288 44.0362 24.6685 44.0362Z" fill="white"/>
<path d="M24.6684 1.09375C19.1188 1.09375 14.6182 5.59443 14.6182 11.144V29.4171C14.6182 34.9667 19.1188 39.4674 24.6684 39.4674C30.2179 39.4674 34.7186 34.9667 34.7186 29.4171V11.144C34.7186 5.59443 30.2179 1.09375 24.6684 1.09375Z" fill="white"/>
<path d="M34.7189 22.718V11.1438C34.7189 8.24569 33.4836 5.64177 31.5211 3.80715C30.2657 3.24251 28.8769 2.9209 27.4096 2.9209C21.8601 2.9209 17.3594 7.42157 17.3594 12.9711V22.718H34.7189Z" fill="#ECEFF1"/>
<path d="M24.6686 39.4685C30.2182 39.4685 34.7189 34.9679 34.7189 29.4183V25.7637H17.3594V32.1593C17.3594 34.2333 17.9898 36.1593 19.0661 37.7618C20.6686 38.8381 22.5946 39.4685 24.6686 39.4685Z" fill="white"/>
<path d="M31.9783 25.7637V28.5046C31.9783 34.0542 27.4777 38.5549 21.9281 38.5549C21.3178 38.5549 20.7276 38.4854 20.1465 38.3794C21.5097 39.0683 23.0391 39.4685 24.6691 39.4685C30.2186 39.4685 34.7193 34.9679 34.7193 29.4183V25.7637H31.9783Z" fill="white"/>
<path d="M24.668 40.3806C18.6214 40.3806 13.7041 35.4633 13.7041 29.4167V11.1436C13.7041 9.36742 14.139 7.60589 14.9613 6.04537C15.1952 5.5995 15.7507 5.42956 16.1947 5.66346C16.6424 5.89918 16.8124 6.45103 16.5766 6.89872C15.8932 8.19612 15.5314 9.66345 15.5314 11.1436V29.4167C15.5314 34.4546 19.6301 38.5533 24.668 38.5533C29.7059 38.5533 33.8046 34.4546 33.8046 29.4167V11.1436C33.8046 6.10567 29.7059 2.007 24.668 2.007C22.53 2.007 20.4469 2.76351 18.806 4.13582C18.4186 4.46291 17.8411 4.40809 17.5195 4.0207C17.1961 3.63331 17.2473 3.05771 17.6347 2.73245C19.6045 1.08604 22.1006 0.179688 24.668 0.179688C30.7146 0.179688 35.6319 5.09699 35.6319 11.1436V29.4167C35.6319 35.4633 30.7146 40.3806 24.668 40.3806Z" fill="white"/>
<path d="M33.805 23.9357H15.5318C15.0275 23.9357 14.6182 23.5264 14.6182 23.0221C14.6182 22.5177 15.0275 22.1084 15.5318 22.1084H33.805C34.3093 22.1084 34.7186 22.5177 34.7186 23.0221C34.7186 23.5264 34.3093 23.9357 33.805 23.9357Z" fill="white"/>
<path d="M31.064 5.66228C31.5686 5.66228 31.9777 5.25322 31.9777 4.74862C31.9777 4.24402 31.5686 3.83496 31.064 3.83496C30.5594 3.83496 30.1504 4.24402 30.1504 4.74862C30.1504 5.25322 30.5594 5.66228 31.064 5.66228Z" fill="white"/>
<path d="M27.4098 5.66228C27.9144 5.66228 28.3234 5.25322 28.3234 4.74862C28.3234 4.24402 27.9144 3.83496 27.4098 3.83496C26.9052 3.83496 26.4961 4.24402 26.4961 4.74862C26.4961 5.25322 26.9052 5.66228 27.4098 5.66228Z" fill="white"/>
<path d="M23.7555 5.66228C24.2601 5.66228 24.6691 5.25322 24.6691 4.74862C24.6691 4.24402 24.2601 3.83496 23.7555 3.83496C23.2509 3.83496 22.8418 4.24402 22.8418 4.74862C22.8418 5.25322 23.2509 5.66228 23.7555 5.66228Z" fill="white"/>
<path d="M20.1012 5.66228C20.6058 5.66228 21.0148 5.25322 21.0148 4.74862C21.0148 4.24402 20.6058 3.83496 20.1012 3.83496C19.5966 3.83496 19.1875 4.24402 19.1875 4.74862C19.1875 5.25322 19.5966 5.66228 20.1012 5.66228Z" fill="white"/>
<path d="M32.8912 9.31755C33.3958 9.31755 33.8049 8.90849 33.8049 8.40389C33.8049 7.89929 33.3958 7.49023 32.8912 7.49023C32.3866 7.49023 31.9775 7.89929 31.9775 8.40389C31.9775 8.90849 32.3866 9.31755 32.8912 9.31755Z" fill="white"/>
<path d="M29.2359 9.31755C29.7405 9.31755 30.1496 8.90849 30.1496 8.40389C30.1496 7.89929 29.7405 7.49023 29.2359 7.49023C28.7313 7.49023 28.3223 7.89929 28.3223 8.40389C28.3223 8.90849 28.7313 9.31755 29.2359 9.31755Z" fill="white"/>
<path d="M25.5826 9.31755C26.0872 9.31755 26.4963 8.90849 26.4963 8.40389C26.4963 7.89929 26.0872 7.49023 25.5826 7.49023C25.078 7.49023 24.6689 7.89929 24.6689 8.40389C24.6689 8.90849 25.078 9.31755 25.5826 9.31755Z" fill="white"/>
<path d="M21.9283 9.31755C22.4329 9.31755 22.842 8.90849 22.842 8.40389C22.842 7.89929 22.4329 7.49023 21.9283 7.49023C21.4237 7.49023 21.0146 7.89929 21.0146 8.40389C21.0146 8.90849 21.4237 9.31755 21.9283 9.31755Z" fill="white"/>
<path d="M18.273 9.31755C18.7776 9.31755 19.1867 8.90849 19.1867 8.40389C19.1867 7.89929 18.7776 7.49023 18.273 7.49023C17.7684 7.49023 17.3594 7.89929 17.3594 8.40389C17.3594 8.90849 17.7684 9.31755 18.273 9.31755Z" fill="white"/>
<path d="M31.064 12.9718C31.5686 12.9718 31.9777 12.5628 31.9777 12.0582C31.9777 11.5536 31.5686 11.1445 31.064 11.1445C30.5594 11.1445 30.1504 11.5536 30.1504 12.0582C30.1504 12.5628 30.5594 12.9718 31.064 12.9718Z" fill="white"/>
<path d="M27.4098 12.9718C27.9144 12.9718 28.3234 12.5628 28.3234 12.0582C28.3234 11.5536 27.9144 11.1445 27.4098 11.1445C26.9052 11.1445 26.4961 11.5536 26.4961 12.0582C26.4961 12.5628 26.9052 12.9718 27.4098 12.9718Z" fill="white"/>
<path d="M23.7555 12.9718C24.2601 12.9718 24.6691 12.5628 24.6691 12.0582C24.6691 11.5536 24.2601 11.1445 23.7555 11.1445C23.2509 11.1445 22.8418 11.5536 22.8418 12.0582C22.8418 12.5628 23.2509 12.9718 23.7555 12.9718Z" fill="white"/>
<path d="M20.1012 12.9718C20.6058 12.9718 21.0148 12.5628 21.0148 12.0582C21.0148 11.5536 20.6058 11.1445 20.1012 11.1445C19.5966 11.1445 19.1875 11.5536 19.1875 12.0582C19.1875 12.5628 19.5966 12.9718 20.1012 12.9718Z" fill="white"/>
<path d="M16.4459 12.9718C16.9505 12.9718 17.3595 12.5628 17.3595 12.0582C17.3595 11.5536 16.9505 11.1445 16.4459 11.1445C15.9413 11.1445 15.5322 11.5536 15.5322 12.0582C15.5322 12.5628 15.9413 12.9718 16.4459 12.9718Z" fill="white"/>
<path d="M31.064 20.2804C31.5686 20.2804 31.9777 19.8714 31.9777 19.3668C31.9777 18.8622 31.5686 18.4531 31.064 18.4531C30.5594 18.4531 30.1504 18.8622 30.1504 19.3668C30.1504 19.8714 30.5594 20.2804 31.064 20.2804Z" fill="white"/>
<path d="M27.4098 20.2804C27.9144 20.2804 28.3234 19.8714 28.3234 19.3668C28.3234 18.8622 27.9144 18.4531 27.4098 18.4531C26.9052 18.4531 26.4961 18.8622 26.4961 19.3668C26.4961 19.8714 26.9052 20.2804 27.4098 20.2804Z" fill="white"/>
<path d="M23.7555 20.2804C24.2601 20.2804 24.6691 19.8714 24.6691 19.3668C24.6691 18.8622 24.2601 18.4531 23.7555 18.4531C23.2509 18.4531 22.8418 18.8622 22.8418 19.3668C22.8418 19.8714 23.2509 20.2804 23.7555 20.2804Z" fill="white"/>
<path d="M20.1012 20.2804C20.6058 20.2804 21.0148 19.8714 21.0148 19.3668C21.0148 18.8622 20.6058 18.4531 20.1012 18.4531C19.5966 18.4531 19.1875 18.8622 19.1875 19.3668C19.1875 19.8714 19.5966 20.2804 20.1012 20.2804Z" fill="white"/>
<path d="M16.4459 20.2804C16.9505 20.2804 17.3595 19.8714 17.3595 19.3668C17.3595 18.8622 16.9505 18.4531 16.4459 18.4531C15.9413 18.4531 15.5322 18.8622 15.5322 19.3668C15.5322 19.8714 15.9413 20.2804 16.4459 20.2804Z" fill="white"/>
<path d="M32.8912 16.6261C33.3958 16.6261 33.8049 16.2171 33.8049 15.7125C33.8049 15.2079 33.3958 14.7988 32.8912 14.7988C32.3866 14.7988 31.9775 15.2079 31.9775 15.7125C31.9775 16.2171 32.3866 16.6261 32.8912 16.6261Z" fill="white"/>
<path d="M29.2359 16.6261C29.7405 16.6261 30.1496 16.2171 30.1496 15.7125C30.1496 15.2079 29.7405 14.7988 29.2359 14.7988C28.7313 14.7988 28.3223 15.2079 28.3223 15.7125C28.3223 16.2171 28.7313 16.6261 29.2359 16.6261Z" fill="white"/>
<path d="M25.5826 16.6261C26.0872 16.6261 26.4963 16.2171 26.4963 15.7125C26.4963 15.2079 26.0872 14.7988 25.5826 14.7988C25.078 14.7988 24.6689 15.2079 24.6689 15.7125C24.6689 16.2171 25.078 16.6261 25.5826 16.6261Z" fill="white"/>
<path d="M21.9283 16.6261C22.4329 16.6261 22.842 16.2171 22.842 15.7125C22.842 15.2079 22.4329 14.7988 21.9283 14.7988C21.4237 14.7988 21.0146 15.2079 21.0146 15.7125C21.0146 16.2171 21.4237 16.6261 21.9283 16.6261Z" fill="white"/>
<path d="M18.273 16.6261C18.7776 16.6261 19.1867 16.2171 19.1867 15.7125C19.1867 15.2079 18.7776 14.7988 18.273 14.7988C17.7684 14.7988 17.3594 15.2079 17.3594 15.7125C17.3594 16.2171 17.7684 16.6261 18.273 16.6261Z" fill="white"/>
<path d="M33.805 27.591H15.5318C15.0275 27.591 14.6182 27.1817 14.6182 26.6773C14.6182 26.173 15.0275 25.7637 15.5318 25.7637H33.805C34.3093 25.7637 34.7186 26.173 34.7186 26.6773C34.7186 27.1817 34.3093 27.591 33.805 27.591Z" fill="white"/>
<path d="M36.5451 54.086H31.0632C28.0353 54.086 25.5812 51.6319 25.5812 48.604V43.1221H23.7539V48.604C23.7539 51.6319 21.2998 54.086 18.272 54.086H12.79H36.5451Z" fill="white"/>
<path d="M36.5457 55.0002H31.0638C27.537 55.0002 24.6682 52.1313 24.6682 48.6046C24.6682 52.1313 21.7993 55.0002 18.2726 55.0002H12.7906C12.2863 55.0002 11.877 54.5909 11.877 54.0865C11.877 53.5822 12.2863 53.1729 12.7906 53.1729H18.2726C20.7906 53.1729 22.8408 51.1245 22.8408 48.6046V43.1226C22.8408 42.6183 23.2502 42.209 23.7545 42.209H25.5818C26.0862 42.209 26.4955 42.6183 26.4955 43.1226V48.6046C26.4955 51.1245 28.5457 53.1729 31.0638 53.1729H36.5457C37.05 53.1729 37.4594 53.5822 37.4594 54.0865C37.4594 54.5909 37.05 55.0002 36.5457 55.0002Z" fill="white"/>
<path d="M36.5457 55.0002H12.7906C12.2863 55.0002 11.877 54.5908 11.877 54.0865C11.877 53.5822 12.2863 53.1729 12.7906 53.1729H36.5457C37.05 53.1729 37.4594 53.5822 37.4594 54.0865C37.4594 54.5908 37.05 55.0002 36.5457 55.0002Z" fill="white"/>
<path d="M3.88304 17.7691C3.53585 17.7691 3.21973 17.5736 3.06441 17.263C2.21471 15.5526 2.21471 15.5526 0.506166 14.7047C0.195523 14.5494 0 14.2315 0 13.8861C0 13.5407 0.195523 13.2228 0.506166 13.0693C2.21471 12.2196 2.21471 12.2196 3.06441 10.511C3.2179 10.2004 3.53585 10.0049 3.88304 10.0049C4.23023 10.0049 4.54636 10.2004 4.70168 10.511C5.54955 12.2196 5.54955 12.2196 7.25992 13.0693C7.57056 13.2228 7.76609 13.5407 7.76609 13.8861C7.76609 14.2315 7.57056 14.5494 7.25992 14.7029C5.54955 15.5544 5.54955 15.5544 4.70168 17.2611C4.54636 17.5736 4.23023 17.7691 3.88304 17.7691ZM2.83234 13.8861C3.28734 14.184 3.58336 14.48 3.88304 14.935C4.1809 14.48 4.47875 14.184 4.93375 13.8861C4.47875 13.5882 4.1809 13.2922 3.88304 12.8372C3.58336 13.2922 3.28734 13.5882 2.83234 13.8861Z" fill="white"/>
<path d="M7.30795 9.53858C6.96076 9.53858 6.64463 9.34306 6.48931 9.03241C5.33993 6.71538 5.33993 6.71538 3.02655 5.56783C2.71408 5.41251 2.51855 5.09455 2.51855 4.74919C2.51855 4.40383 2.71408 4.08587 3.02655 3.93055C5.33993 2.783 5.33993 2.783 6.49114 0.465965C6.79995 -0.155322 7.8196 -0.155322 8.12842 0.465965C9.27779 2.783 9.27779 2.783 11.593 3.93055C11.9018 4.08587 12.0973 4.40383 12.0973 4.74919C12.0973 5.09455 11.9018 5.41251 11.5893 5.56783C9.27598 6.71538 9.27596 6.71538 8.12659 9.03241C7.97126 9.34306 7.65514 9.53858 7.30795 9.53858ZM5.40754 4.74919C6.32668 5.28277 6.77437 5.72863 7.30795 6.6496C7.84152 5.72863 8.28922 5.28277 9.20835 4.74919C8.28922 4.21561 7.84152 3.76975 7.30795 2.84878C6.77437 3.76975 6.32668 4.21561 5.40754 4.74919Z" fill="white"/>
</g>
<defs>
<clipPath id="clip0_1_2">
<rect width="184" height="55" fill="white"/>
</clipPath>
</defs>
</svg>
