<svg xmlns="http://www.w3.org/2000/svg" width="338.538" height="106.754" viewBox="0 0 338.538 106.754">
  <g id="Group_175" data-name="Group 175" opacity="0.36">
    <g id="Group_126" data-name="Group 126">
      <g id="Group_103" data-name="Group 103" transform="translate(9.889 49.194)">
        <path id="Path_86" data-name="Path 86" d="M52.61,65.993v4.193h3.3V61.82h-3.3Z" transform="translate(-52.61 -61.82)" fill="#fff"/>
      </g>
      <g id="Group_104" data-name="Group 104" transform="translate(14.812 43.102)">
        <path id="Path_87" data-name="Path 87" d="M54.97,69.164V79.45h3.3V58.9h-3.3Z" transform="translate(-54.97 -58.9)" fill="#fff"/>
      </g>
      <g id="Group_105" data-name="Group 105" transform="translate(19.757 24.326)">
        <path id="Path_88" data-name="Path 88" d="M57.34,78.941V108h3.3V49.9h-3.3Z" transform="translate(-57.34 -49.9)" fill="#fff"/>
      </g>
      <g id="Group_106" data-name="Group 106" transform="translate(0 51.969)">
        <path id="Path_89" data-name="Path 89" d="M47.87,64.548v1.4h3.3v-2.8h-3.3Z" transform="translate(-47.87 -63.15)" fill="#fff"/>
      </g>
      <g id="Group_107" data-name="Group 107" transform="translate(4.944 50.154)">
        <path id="Path_90" data-name="Path 90" d="M50.24,65.493v3.234h3.3V62.28h-3.3Z" transform="translate(-50.24 -62.28)" fill="#fff"/>
      </g>
      <g id="Group_108" data-name="Group 108" transform="translate(24.701 7.615)">
        <path id="Path_91" data-name="Path 91" d="M59.71,87.642v45.773h3.3V41.89h-3.3Z" transform="translate(-59.71 -41.89)" fill="#fff"/>
      </g>
      <g id="Group_109" data-name="Group 109" transform="translate(29.646 30.501)">
        <path id="Path_92" data-name="Path 92" d="M62.08,75.725V98.612h3.3V52.86h-3.3Z" transform="translate(-62.08 -52.86)" fill="#fff"/>
      </g>
      <g id="Group_110" data-name="Group 110" transform="translate(34.59 47.901)">
        <path id="Path_93" data-name="Path 93" d="M64.45,66.666v5.487h3.275V61.2H64.45Z" transform="translate(-64.45 -61.2)" fill="#fff"/>
      </g>
      <g id="Group_111" data-name="Group 111" transform="translate(39.514 26.496)">
        <path id="Path_94" data-name="Path 94" d="M66.81,77.811V104.7h3.3V50.94h-3.3Z" transform="translate(-66.81 -50.94)" fill="#fff"/>
      </g>
      <g id="Group_112" data-name="Group 112" transform="translate(44.458 10.556)">
        <path id="Path_95" data-name="Path 95" d="M69.18,86.11v42.831h3.3V43.3h-3.3Z" transform="translate(-69.18 -43.3)" fill="#fff"/>
      </g>
      <g id="Group_113" data-name="Group 113" transform="translate(49.403)">
        <path id="Path_96" data-name="Path 96" d="M71.55,91.607v53.388h3.3V38.24h-3.3Z" transform="translate(-71.55 -38.24)" fill="#fff"/>
      </g>
      <g id="Group_114" data-name="Group 114" transform="translate(54.347 36.426)">
        <path id="Path_97" data-name="Path 97" d="M73.92,72.64V89.6h3.3V55.7h-3.3Z" transform="translate(-73.92 -55.7)" fill="#fff"/>
      </g>
      <g id="Group_115" data-name="Group 115" transform="translate(59.271 44.896)">
        <path id="Path_98" data-name="Path 98" d="M76.28,68.23v8.491h3.3V59.76h-3.3Z" transform="translate(-76.28 -59.76)" fill="#fff"/>
      </g>
      <g id="Group_116" data-name="Group 116" transform="translate(64.215 51.218)">
        <path id="Path_99" data-name="Path 99" d="M78.65,64.939v2.17h3.3V62.79h-3.3Z" transform="translate(-78.65 -62.79)" fill="#fff"/>
      </g>
      <g id="Group_117" data-name="Group 117" transform="translate(69.16 36.426)">
        <path id="Path_100" data-name="Path 100" d="M81.02,72.64V89.6h3.3V55.7h-3.3Z" transform="translate(-81.02 -55.7)" fill="#fff"/>
      </g>
      <g id="Group_118" data-name="Group 118" transform="translate(74.104 25.411)">
        <path id="Path_101" data-name="Path 101" d="M83.39,78.376v27.977h3.3V50.42h-3.3Z" transform="translate(-83.39 -50.42)" fill="#fff"/>
      </g>
      <g id="Group_119" data-name="Group 119" transform="translate(79.049 10.556)">
        <path id="Path_102" data-name="Path 102" d="M85.76,86.11v42.831h3.275V43.3H85.76Z" transform="translate(-85.76 -43.3)" fill="#fff"/>
      </g>
      <g id="Group_120" data-name="Group 120" transform="translate(83.972 30.501)">
        <path id="Path_103" data-name="Path 103" d="M88.12,52.86V98.612h3.3V52.86Z" transform="translate(-88.12 -52.86)" fill="#fff"/>
      </g>
      <g id="Group_121" data-name="Group 121" transform="translate(89.668 43.102)">
        <path id="Path_104" data-name="Path 104" d="M90.85,69.164V79.45h3.3V58.9h-3.3Z" transform="translate(-90.85 -58.9)" fill="#fff"/>
      </g>
      <g id="Group_122" data-name="Group 122" transform="translate(94.612 46.649)">
        <path id="Path_105" data-name="Path 105" d="M93.22,60.6V74.036h3.3V60.6Z" transform="translate(-93.22 -60.6)" fill="#fff"/>
      </g>
      <g id="Group_123" data-name="Group 123" transform="translate(100.287 49.152)">
        <path id="Path_106" data-name="Path 106" d="M95.94,66.014v4.235h3.3V61.8h-3.3Z" transform="translate(-95.94 -61.8)" fill="#fff"/>
      </g>
      <g id="Group_124" data-name="Group 124" transform="translate(105.231 50.154)">
        <path id="Path_107" data-name="Path 107" d="M98.31,62.28v6.447h3.3V62.28Z" transform="translate(-98.31 -62.28)" fill="#fff"/>
      </g>
      <g id="Group_125" data-name="Group 125" transform="translate(110.927 51.969)">
        <path id="Path_108" data-name="Path 108" d="M101.04,64.548v1.4h3.3v-2.8h-3.3Z" transform="translate(-101.04 -63.15)" fill="#fff"/>
      </g>
    </g>
    <g id="Group_150" data-name="Group 150" transform="translate(112.158)">
      <g id="Group_127" data-name="Group 127" transform="translate(9.889 49.194)">
        <path id="Path_109" data-name="Path 109" d="M106.37,65.993v4.193h3.3V61.82h-3.3Z" transform="translate(-106.37 -61.82)" fill="#fff"/>
      </g>
      <g id="Group_128" data-name="Group 128" transform="translate(14.833 43.102)">
        <path id="Path_110" data-name="Path 110" d="M108.74,69.164V79.45h3.3V58.9h-3.3Z" transform="translate(-108.74 -58.9)" fill="#fff"/>
      </g>
      <g id="Group_129" data-name="Group 129" transform="translate(19.757 24.326)">
        <path id="Path_111" data-name="Path 111" d="M111.1,78.941V108h3.3V49.9h-3.3Z" transform="translate(-111.1 -49.9)" fill="#fff"/>
      </g>
      <g id="Group_130" data-name="Group 130" transform="translate(0 51.969)">
        <path id="Path_112" data-name="Path 112" d="M101.63,64.548v1.4h3.3v-2.8h-3.3Z" transform="translate(-101.63 -63.15)" fill="#fff"/>
      </g>
      <g id="Group_131" data-name="Group 131" transform="translate(4.944 50.154)">
        <path id="Path_113" data-name="Path 113" d="M104,65.493v3.234h3.3V62.28H104Z" transform="translate(-104 -62.28)" fill="#fff"/>
      </g>
      <g id="Group_132" data-name="Group 132" transform="translate(24.701 7.615)">
        <path id="Path_114" data-name="Path 114" d="M113.47,87.642v45.773h3.3V41.89h-3.3Z" transform="translate(-113.47 -41.89)" fill="#fff"/>
      </g>
      <g id="Group_133" data-name="Group 133" transform="translate(29.646 30.501)">
        <path id="Path_115" data-name="Path 115" d="M115.84,75.725V98.612h3.3V52.86h-3.3Z" transform="translate(-115.84 -52.86)" fill="#fff"/>
      </g>
      <g id="Group_134" data-name="Group 134" transform="translate(34.59 47.901)">
        <path id="Path_116" data-name="Path 116" d="M118.21,66.666v5.487h3.3V61.2h-3.3Z" transform="translate(-118.21 -61.2)" fill="#fff"/>
      </g>
      <g id="Group_135" data-name="Group 135" transform="translate(39.535 26.496)">
        <path id="Path_117" data-name="Path 117" d="M120.58,77.811V104.7h3.275V50.94H120.58Z" transform="translate(-120.58 -50.94)" fill="#fff"/>
      </g>
      <g id="Group_136" data-name="Group 136" transform="translate(44.458 10.556)">
        <path id="Path_118" data-name="Path 118" d="M122.94,86.11v42.831h3.3V43.3h-3.3Z" transform="translate(-122.94 -43.3)" fill="#fff"/>
      </g>
      <g id="Group_137" data-name="Group 137" transform="translate(49.403)">
        <path id="Path_119" data-name="Path 119" d="M125.31,91.607v53.388h3.3V38.24h-3.3Z" transform="translate(-125.31 -38.24)" fill="#fff"/>
      </g>
      <g id="Group_138" data-name="Group 138" transform="translate(54.347 36.426)">
        <path id="Path_120" data-name="Path 120" d="M127.68,72.64V89.6h3.3V55.7h-3.3Z" transform="translate(-127.68 -55.7)" fill="#fff"/>
      </g>
      <g id="Group_139" data-name="Group 139" transform="translate(59.292 44.896)">
        <path id="Path_121" data-name="Path 121" d="M130.05,68.23v8.491h3.3V59.76h-3.3Z" transform="translate(-130.05 -59.76)" fill="#fff"/>
      </g>
      <g id="Group_140" data-name="Group 140" transform="translate(64.215 51.218)">
        <path id="Path_122" data-name="Path 122" d="M132.41,64.939v2.17h3.3V62.79h-3.3Z" transform="translate(-132.41 -62.79)" fill="#fff"/>
      </g>
      <g id="Group_141" data-name="Group 141" transform="translate(69.16 36.426)">
        <path id="Path_123" data-name="Path 123" d="M134.78,72.64V89.6h3.3V55.7h-3.3Z" transform="translate(-134.78 -55.7)" fill="#fff"/>
      </g>
      <g id="Group_142" data-name="Group 142" transform="translate(74.104 25.411)">
        <path id="Path_124" data-name="Path 124" d="M137.15,78.376v27.977h3.3V50.42h-3.3Z" transform="translate(-137.15 -50.42)" fill="#fff"/>
      </g>
      <g id="Group_143" data-name="Group 143" transform="translate(79.049 10.556)">
        <path id="Path_125" data-name="Path 125" d="M139.52,86.11v42.831h3.3V43.3h-3.3Z" transform="translate(-139.52 -43.3)" fill="#fff"/>
      </g>
      <g id="Group_144" data-name="Group 144" transform="translate(83.993 30.501)">
        <path id="Path_126" data-name="Path 126" d="M141.89,52.86V98.612h3.275V52.86Z" transform="translate(-141.89 -52.86)" fill="#fff"/>
      </g>
      <g id="Group_145" data-name="Group 145" transform="translate(89.668 43.102)">
        <path id="Path_127" data-name="Path 127" d="M144.61,69.164V79.45h3.3V58.9h-3.3Z" transform="translate(-144.61 -58.9)" fill="#fff"/>
      </g>
      <g id="Group_146" data-name="Group 146" transform="translate(94.612 46.649)">
        <path id="Path_128" data-name="Path 128" d="M146.98,60.6V74.036h3.3V60.6Z" transform="translate(-146.98 -60.6)" fill="#fff"/>
      </g>
      <g id="Group_147" data-name="Group 147" transform="translate(100.308 49.152)">
        <path id="Path_129" data-name="Path 129" d="M149.71,66.014v4.235h3.275V61.8H149.71Z" transform="translate(-149.71 -61.8)" fill="#fff"/>
      </g>
      <g id="Group_148" data-name="Group 148" transform="translate(105.231 50.154)">
        <path id="Path_130" data-name="Path 130" d="M152.07,62.28v6.447h3.3V62.28Z" transform="translate(-152.07 -62.28)" fill="#fff"/>
      </g>
      <g id="Group_149" data-name="Group 149" transform="translate(110.927 51.969)">
        <path id="Path_131" data-name="Path 131" d="M154.8,64.548v1.4h3.3v-2.8h-3.3Z" transform="translate(-154.8 -63.15)" fill="#fff"/>
      </g>
    </g>
    <g id="Group_174" data-name="Group 174" transform="translate(224.336)">
      <g id="Group_151" data-name="Group 151" transform="translate(9.868 49.194)">
        <path id="Path_132" data-name="Path 132" d="M160.13,65.993v4.193h3.3V61.82h-3.3Z" transform="translate(-160.13 -61.82)" fill="#fff"/>
      </g>
      <g id="Group_152" data-name="Group 152" transform="translate(14.812 43.102)">
        <path id="Path_133" data-name="Path 133" d="M162.5,69.164V79.45h3.3V58.9h-3.3Z" transform="translate(-162.5 -58.9)" fill="#fff"/>
      </g>
      <g id="Group_153" data-name="Group 153" transform="translate(19.757 24.326)">
        <path id="Path_134" data-name="Path 134" d="M164.87,78.941V108h3.3V49.9h-3.3Z" transform="translate(-164.87 -49.9)" fill="#fff"/>
      </g>
      <g id="Group_154" data-name="Group 154" transform="translate(0 51.969)">
        <path id="Path_135" data-name="Path 135" d="M155.4,64.548v1.4h3.275v-2.8H155.4Z" transform="translate(-155.4 -63.15)" fill="#fff"/>
      </g>
      <g id="Group_155" data-name="Group 155" transform="translate(4.924 50.154)">
        <path id="Path_136" data-name="Path 136" d="M157.76,65.493v3.234h3.3V62.28h-3.3Z" transform="translate(-157.76 -62.28)" fill="#fff"/>
      </g>
      <g id="Group_156" data-name="Group 156" transform="translate(24.701 7.615)">
        <path id="Path_137" data-name="Path 137" d="M167.24,87.642v45.773h3.275V41.89H167.24Z" transform="translate(-167.24 -41.89)" fill="#fff"/>
      </g>
      <g id="Group_157" data-name="Group 157" transform="translate(29.625 30.501)">
        <path id="Path_138" data-name="Path 138" d="M169.6,75.725V98.612h3.3V52.86h-3.3Z" transform="translate(-169.6 -52.86)" fill="#fff"/>
      </g>
      <g id="Group_158" data-name="Group 158" transform="translate(34.569 47.901)">
        <path id="Path_139" data-name="Path 139" d="M171.97,66.666v5.487h3.3V61.2h-3.3Z" transform="translate(-171.97 -61.2)" fill="#fff"/>
      </g>
      <g id="Group_159" data-name="Group 159" transform="translate(39.514 26.496)">
        <path id="Path_140" data-name="Path 140" d="M174.34,77.811V104.7h3.3V50.94h-3.3Z" transform="translate(-174.34 -50.94)" fill="#fff"/>
      </g>
      <g id="Group_160" data-name="Group 160" transform="translate(44.458 10.556)">
        <path id="Path_141" data-name="Path 141" d="M176.71,86.11v42.831h3.275V43.3H176.71Z" transform="translate(-176.71 -43.3)" fill="#fff"/>
      </g>
      <g id="Group_161" data-name="Group 161" transform="translate(49.382)">
        <path id="Path_142" data-name="Path 142" d="M179.07,91.607v53.388h3.3V38.24h-3.3Z" transform="translate(-179.07 -38.24)" fill="#fff"/>
      </g>
      <g id="Group_162" data-name="Group 162" transform="translate(54.326 36.426)">
        <path id="Path_143" data-name="Path 143" d="M181.44,72.64V89.6h3.3V55.7h-3.3Z" transform="translate(-181.44 -55.7)" fill="#fff"/>
      </g>
      <g id="Group_163" data-name="Group 163" transform="translate(59.271 44.896)">
        <path id="Path_144" data-name="Path 144" d="M183.81,68.23v8.491h3.3V59.76h-3.3Z" transform="translate(-183.81 -59.76)" fill="#fff"/>
      </g>
      <g id="Group_164" data-name="Group 164" transform="translate(64.215 51.218)">
        <path id="Path_145" data-name="Path 145" d="M186.18,64.939v2.17h3.3V62.79h-3.3Z" transform="translate(-186.18 -62.79)" fill="#fff"/>
      </g>
      <g id="Group_165" data-name="Group 165" transform="translate(69.139 36.426)">
        <path id="Path_146" data-name="Path 146" d="M188.54,72.64V89.6h3.3V55.7h-3.3Z" transform="translate(-188.54 -55.7)" fill="#fff"/>
      </g>
      <g id="Group_166" data-name="Group 166" transform="translate(74.083 25.411)">
        <path id="Path_147" data-name="Path 147" d="M190.91,78.376v27.977h3.3V50.42h-3.3Z" transform="translate(-190.91 -50.42)" fill="#fff"/>
      </g>
      <g id="Group_167" data-name="Group 167" transform="translate(79.028 10.556)">
        <path id="Path_148" data-name="Path 148" d="M193.28,86.11v42.831h3.3V43.3h-3.3Z" transform="translate(-193.28 -43.3)" fill="#fff"/>
      </g>
      <g id="Group_168" data-name="Group 168" transform="translate(83.972 30.501)">
        <path id="Path_149" data-name="Path 149" d="M195.65,52.86V98.612h3.3V52.86Z" transform="translate(-195.65 -52.86)" fill="#fff"/>
      </g>
      <g id="Group_169" data-name="Group 169" transform="translate(89.647 43.102)">
        <path id="Path_150" data-name="Path 150" d="M198.37,69.164V79.45h3.3V58.9h-3.3Z" transform="translate(-198.37 -58.9)" fill="#fff"/>
      </g>
      <g id="Group_170" data-name="Group 170" transform="translate(94.591 46.649)">
        <path id="Path_151" data-name="Path 151" d="M200.74,60.6V74.036h3.3V60.6Z" transform="translate(-200.74 -60.6)" fill="#fff"/>
      </g>
      <g id="Group_171" data-name="Group 171" transform="translate(100.287 49.152)">
        <path id="Path_152" data-name="Path 152" d="M203.47,66.014v4.235h3.3V61.8h-3.3Z" transform="translate(-203.47 -61.8)" fill="#fff"/>
      </g>
      <g id="Group_172" data-name="Group 172" transform="translate(105.231 50.154)">
        <path id="Path_153" data-name="Path 153" d="M205.84,62.28v6.447h3.275V62.28Z" transform="translate(-205.84 -62.28)" fill="#fff"/>
      </g>
      <g id="Group_173" data-name="Group 173" transform="translate(110.906 51.969)">
        <path id="Path_154" data-name="Path 154" d="M208.56,64.548v1.4h3.3v-2.8h-3.3Z" transform="translate(-208.56 -63.15)" fill="#fff"/>
      </g>
    </g>
  </g>
</svg>
