<svg xmlns="http://www.w3.org/2000/svg" width="28" height="28" viewBox="0 0 28 28"><g><g><path fill="#dccbbc" d="M27.288 9.285v3.019h-3.019V9.285zm0 11.32v5.283c0 .837-.672 1.51-1.51 1.51C11.607 27.397.12 15.91.12 1.737.12.901.792.23 1.63.23h5.282c.838 0 1.51.672 1.51 1.51 0 1.879.301 3.697.86 5.395.166.521.045 1.117-.37 1.532l-3.32 3.328a22.77 22.77 0 0 0 9.946 9.94l3.32-3.329a1.514 1.514 0 0 1 1.532-.37c1.698.559 3.51.86 5.389.86.837 0 1.509.672 1.509 1.51zm-6.037-8.301h-3.019V9.285h3.019zm-6.038 0h-3.018V9.285h3.018z"/></g></g></svg>