<svg xmlns="http://www.w3.org/2000/svg" width="47.38" height="56.614" viewBox="0 0 47.38 56.614">
  <g id="Group_55" data-name="Group 55" transform="translate(-1738.347 -782.14)">
    <g id="Group_54" data-name="Group 54" transform="translate(1738.347 782.14)">
      <path id="Path_72" data-name="Path 72" d="M1605.057,177.59a23.7,23.7,0,0,1-9.889,19.211,2.3,2.3,0,0,1-2.438.019,2.4,2.4,0,0,1-1.062-2.313,2.242,2.242,0,0,1,.9-1.468,20.387,20.387,0,0,0,3.506-3.324,18.394,18.394,0,0,0,3.978-8.373,18.707,18.707,0,0,0-4.186-16.154,18.082,18.082,0,0,0-8.966-5.87,19.113,19.113,0,0,0-23.118,10.808,18.461,18.461,0,0,0-1.359,9.778,18.847,18.847,0,0,0,7.429,12.887,3,3,0,0,1,1.083,1.3,2.295,2.295,0,0,1-3.468,2.659,23.472,23.472,0,0,1-8.659-11.917,23.112,23.112,0,0,1-1.013-9.557,23.38,23.38,0,0,1,7.572-15.185,22.641,22.641,0,0,1,10.66-5.582,23.526,23.526,0,0,1,23.515,7.889,22.963,22.963,0,0,1,5.006,10.449A24.992,24.992,0,0,1,1605.057,177.59Z" transform="translate(-1557.677 -153.894)" fill="#f7bd14"/>
      <path id="Path_73" data-name="Path 73" d="M1689.9,270.473a15.8,15.8,0,0,1-5.6,12.606,2.143,2.143,0,0,1-2.916-.041,2.293,2.293,0,0,1-.513-2.8,2.45,2.45,0,0,1,.548-.68,11.392,11.392,0,0,0,.458-16.726,11.331,11.331,0,0,0-18.063,3.021,11.041,11.041,0,0,0,.363,10.91,11.819,11.819,0,0,0,2.407,2.873,2.26,2.26,0,0,1,.473,2.71,2.2,2.2,0,0,1-2.5,1.2,3.187,3.187,0,0,1-1.285-.716,15.68,15.68,0,0,1-5.04-9.01,15.984,15.984,0,0,1,30.868-7.983A15.232,15.232,0,0,1,1689.9,270.473Z" transform="translate(-1650.261 -247.193)" fill="#f7bd14"/>
      <path id="Path_74" data-name="Path 74" d="M1796.184,610.741c0,1.794.056,3.589-.013,5.38a5.807,5.807,0,0,1-5.274,5.355,7.129,7.129,0,0,1-4.213-.7,5.466,5.466,0,0,1-2.959-4.574c-.132-2.286-.067-4.585-.068-6.878,0-1.614-.018-3.23.058-4.841a5.722,5.722,0,0,1,4.648-5.181,7.192,7.192,0,0,1,4.548.461,5.7,5.7,0,0,1,3.252,4.758c.1,1.028.048,2.072.055,3.109s0,2.076,0,3.114Z" transform="translate(-1766.267 -564.904)" fill="#f7bd14"/>
      <path id="Path_75" data-name="Path 75" d="M1767.371,371.688a8.156,8.156,0,0,1-8.211-8.1,8.175,8.175,0,1,1,16.35-.064A8.13,8.13,0,0,1,1767.371,371.688Z" transform="translate(-1743.667 -339.872)" fill="#f7bd14"/>
    </g>
  </g>
</svg>
